<svg width="12" height="12" viewBox="0 0 12 12" fill="none" xmlns="http://www.w3.org/2000/svg">
<g clip-path="url(#clip0_822_2022)">
<path d="M12 6.00049V5.99749C12 4.22199 11.227 2.62749 9.9995 1.53099L9.9935 1.52599C9.97835 1.50965 9.96141 1.49505 9.943 1.48249L9.942 1.48199C8.8518 0.524753 7.4498 -0.00183929 5.999 0.000987888C4.483 0.000987888 3.099 0.563988 2.044 1.49299L2.0505 1.48749C2.03779 1.49713 2.02606 1.50802 2.0155 1.51999V1.52049C1.38127 2.08208 0.873598 2.77203 0.52613 3.54463C0.178663 4.31723 -0.000673444 5.15485 1.90033e-06 6.00199C1.90033e-06 7.77699 0.772002 9.37149 1.9985 10.4685L2.0045 10.4735C2.02038 10.4915 2.03815 10.5078 2.0575 10.522L2.0585 10.5225C3.14842 11.4783 4.54934 12.0041 5.999 12.0015C7.45543 12.0037 8.86236 11.473 9.9545 10.5095L9.948 10.515C10.5932 9.95402 11.1104 9.261 11.4646 8.48283C11.8188 7.70465 12.0017 6.85948 12.001 6.00449V6.00099L12 6.00049ZM9.769 9.90299C9.47178 9.66257 9.15214 9.45126 8.8145 9.27199L8.782 9.25599C9.0885 8.37249 9.273 7.35399 9.2905 6.29449V6.28649H11.421C11.3492 7.65719 10.7592 8.94938 9.7705 9.90149L9.769 9.90299ZM6.286 9.15049C6.9275 9.18499 7.527 9.32599 8.08 9.55549L8.044 9.54249C7.601 10.5525 6.9775 11.2465 6.286 11.399V9.15049ZM6.286 8.57849V6.28649H8.72C8.70069 7.23562 8.53611 8.17619 8.232 9.07549L8.2515 9.00999C7.63073 8.75484 6.97049 8.60903 6.3 8.57899L6.2865 8.57849H6.286ZM6.286 5.71449V3.42249C6.97458 3.39106 7.65248 3.24032 8.2895 2.97699L8.25 2.99149C8.5275 3.80099 8.698 4.73399 8.72 5.70399V5.71449H6.286ZM6.286 2.85049V0.602988C6.9775 0.755488 7.601 1.44649 8.044 2.45949C7.527 2.67449 6.9275 2.81499 6.3005 2.84999L6.286 2.85049ZM7.713 0.850488C8.30218 1.04701 8.8532 1.34332 9.342 1.72649L9.3305 1.71749C9.109 1.89149 8.8605 2.05549 8.5985 2.19799L8.5705 2.21199C8.35879 1.71235 8.0677 1.25022 7.7085 0.843488L7.713 0.848988V0.850488ZM5.713 0.604488V2.85049C5.09625 2.81903 4.48946 2.68204 3.919 2.44549L3.955 2.45849C4.4 1.44849 5.0225 0.754988 5.714 0.602488L5.713 0.604488ZM3.429 2.21049C3.15796 2.06467 2.89972 1.89624 2.657 1.70699L2.669 1.71599C3.14357 1.34406 3.67736 1.05469 4.248 0.859988L4.286 0.848488C3.93621 1.2442 3.65119 1.69274 3.4415 2.17749L3.429 2.20999V2.21049ZM5.714 3.42199V5.71399H3.28C3.302 4.73349 3.4725 3.80049 3.7695 2.92549L3.75 2.99099C4.37053 3.24572 5.0304 3.39136 5.7005 3.42149L5.714 3.42199ZM5.714 6.28599V8.57799C5.02542 8.60942 4.34752 8.76015 3.7105 9.02349L3.75 9.00899C3.4725 8.19999 3.302 7.26649 3.28 6.29649V6.28599H5.714ZM5.714 9.14999V11.3975C5.0225 11.245 4.399 10.554 3.956 9.54099C4.473 9.32599 5.0725 9.18599 5.6995 9.15099L5.714 9.15049V9.14999ZM4.289 11.15C3.69998 10.954 3.14897 10.6584 2.66 10.276L2.672 10.285C2.8935 10.111 3.142 9.94699 3.404 9.80449L3.432 9.79049C3.64194 10.2903 3.93303 10.752 4.2935 11.157L4.289 11.152V11.15ZM8.571 9.78999C8.861 9.94749 9.1095 10.111 9.343 10.2935L9.331 10.2845C8.85643 10.6564 8.32264 10.9458 7.752 11.1405L7.714 11.152C8.06379 10.7565 8.34881 10.3081 8.5585 9.82349L8.571 9.79099V9.78999ZM11.421 5.71449H9.2905C9.27517 4.67996 9.09664 3.65434 8.7615 2.67549L8.782 2.74449C9.1352 2.55852 9.46959 2.33883 9.7805 2.08849L9.7685 2.09749C10.7551 3.046 11.3453 4.33341 11.42 5.69999L11.4205 5.71399L11.421 5.71449ZM2.231 2.09799C2.519 2.33199 2.8425 2.54649 3.1855 2.72899L3.218 2.74499C2.9115 3.62849 2.727 4.64699 2.7095 5.70649V5.71449H0.578502C0.650348 4.34379 1.24033 3.05159 2.229 2.09949L2.2305 2.09799H2.231ZM0.579002 6.28649H2.7095C2.72483 7.32101 2.90336 8.34663 3.2385 9.32549L3.218 9.25649C2.8425 9.45599 2.5195 9.67049 2.2195 9.91249L2.2315 9.90349C1.24487 8.95497 0.654684 7.66757 0.580002 6.30099L0.579502 6.28699L0.579002 6.28649Z" fill="#1D1D1D"/>
</g>
<defs>
<clipPath id="clip0_822_2022">
<rect width="12" height="12" fill="white"/>
</clipPath>
</defs>
</svg>
