<svg width="9" height="9" viewBox="0 0 9 9" fill="none" xmlns="http://www.w3.org/2000/svg">
<path d="M7.31116 2.99585L4.49978 5.73635L1.68841 2.99585C1.63818 2.94679 1.57075 2.91932 1.50053 2.91932C1.43032 2.91932 1.36289 2.94679 1.31266 2.99585C1.28834 3.01968 1.26902 3.04813 1.25582 3.07952C1.24263 3.11091 1.23584 3.14462 1.23584 3.17867C1.23584 3.21272 1.24263 3.24642 1.25582 3.27782C1.26902 3.30921 1.28834 3.33765 1.31266 3.36148L4.30347 6.27748C4.35599 6.32867 4.42644 6.35733 4.49978 6.35733C4.57313 6.35733 4.64357 6.32867 4.6961 6.27748L7.68691 3.36204C7.7114 3.33819 7.73087 3.30968 7.74416 3.27819C7.75745 3.24669 7.7643 3.21285 7.7643 3.17867C7.7643 3.14448 7.75745 3.11064 7.74416 3.07915C7.73087 3.04765 7.7114 3.01914 7.68691 2.99529C7.63668 2.94623 7.56925 2.91876 7.49903 2.91876C7.42882 2.91876 7.36139 2.94623 7.31116 2.99529V2.99585Z" fill="white"/>
</svg>
