<svg width="9" height="9" viewBox="0 0 9 9" fill="none" xmlns="http://www.w3.org/2000/svg">
<path d="M1.6886 6.00396L4.49997 3.26346L7.31135 6.00396C7.36158 6.05302 7.42901 6.08049 7.49922 6.08049C7.56944 6.08049 7.63687 6.05302 7.6871 6.00396C7.71142 5.98013 7.73074 5.95169 7.74393 5.9203C7.75712 5.88891 7.76392 5.8552 7.76392 5.82115C7.76392 5.7871 7.75712 5.75339 7.74393 5.722C7.73074 5.69061 7.71142 5.66217 7.6871 5.63834L4.69629 2.72234C4.64376 2.67114 4.57332 2.64249 4.49997 2.64249C4.42663 2.64249 4.35618 2.67114 4.30366 2.72234L1.31285 5.63777C1.28835 5.66162 1.26889 5.69014 1.25559 5.72163C1.2423 5.75313 1.23545 5.78696 1.23545 5.82115C1.23545 5.85534 1.2423 5.88917 1.25559 5.92067C1.26889 5.95216 1.28835 5.98068 1.31285 6.00453C1.36308 6.05359 1.43051 6.08105 1.50072 6.08105C1.57094 6.08105 1.63837 6.05359 1.6886 6.00453V6.00396Z" fill="white"/>
</svg>
