<svg width="54" height="54" viewBox="0 0 54 54" fill="none" xmlns="http://www.w3.org/2000/svg">
<path d="M29.3059 17.9446L37.4059 26.0446C37.5316 26.17 37.6314 26.319 37.6994 26.483C37.7675 26.647 37.8025 26.8228 37.8025 27.0004C37.8025 27.178 37.7675 27.3538 37.6994 27.5178C37.6314 27.6818 37.5316 27.8308 37.4059 27.9562L29.3059 36.0562C29.0524 36.3097 28.7086 36.4521 28.3501 36.4521C27.9916 36.4521 27.6478 36.3097 27.3943 36.0562C27.1408 35.8027 26.9984 35.4589 26.9984 35.1004C26.9984 34.7419 27.1408 34.3981 27.3943 34.1446L33.1912 28.3504L17.5501 28.3504C17.1921 28.3504 16.8487 28.2082 16.5955 27.955C16.3423 27.7018 16.2001 27.3584 16.2001 27.0004C16.2001 26.6423 16.3423 26.299 16.5955 26.0458C16.8487 25.7926 17.1921 25.6504 17.5501 25.6504L33.1912 25.6504L27.3943 19.8562C27.1408 19.6027 26.9984 19.2589 26.9984 18.9004C26.9984 18.5419 27.1408 18.1981 27.3943 17.9446C27.6478 17.6911 27.9916 17.5487 28.3501 17.5487C28.7086 17.5487 29.0524 17.6911 29.3059 17.9446ZM48.6001 27.0004C48.6001 21.2717 46.3244 15.7777 42.2736 11.7269C38.2228 7.6761 32.7288 5.40039 27.0001 5.40039C21.2714 5.40039 15.7774 7.6761 11.7266 11.7269C7.67581 15.7777 5.4001 21.2717 5.4001 27.0004C5.4001 32.7291 7.67581 38.2231 11.7266 42.2739C15.7774 46.3247 21.2714 48.6004 27.0001 48.6004C32.7288 48.6004 38.2228 46.3247 42.2736 42.2739C46.3244 38.2231 48.6001 32.7291 48.6001 27.0004ZM27.0001 8.10039C29.4821 8.10039 31.9398 8.58925 34.2328 9.53907C36.5259 10.4889 38.6094 11.881 40.3644 13.6361C42.1194 15.3911 43.5116 17.4746 44.4614 19.7677C45.4112 22.0607 45.9001 24.5184 45.9001 27.0004C45.9001 29.4824 45.4112 31.9401 44.4614 34.2331C43.5116 36.5262 42.1194 38.6097 40.3644 40.3647C38.6094 42.1197 36.5259 43.5119 34.2328 44.4617C31.9398 45.4115 29.4821 45.9004 27.0001 45.9004C21.9875 45.9004 17.1802 43.9091 13.6358 40.3647C10.0913 36.8203 8.1001 32.013 8.1001 27.0004C8.1001 21.9878 10.0913 17.1805 13.6358 13.6361C17.1802 10.0916 21.9875 8.10039 27.0001 8.10039Z" fill="#898989"/>
</svg>
