<svg width="15" height="15" viewBox="0 0 15 15" fill="none" xmlns="http://www.w3.org/2000/svg">
<g clip-path="url(#clip0_705_7292)">
<path d="M6.19956 0.895508C3.26333 0.895508 0.814941 2.91474 0.814941 5.47243C0.814941 6.78089 1.5311 7.92135 2.54825 8.75382C2.48257 9.19614 2.30274 9.61372 2.02648 9.96535C1.91374 10.1097 1.79592 10.2499 1.67325 10.3859C1.60975 10.4528 1.55327 10.5261 1.50471 10.6045C1.47402 10.6546 1.4261 10.7106 1.40402 10.8237C1.3814 10.9362 1.4121 11.1214 1.50471 11.2609L1.57202 11.3788L1.70663 11.4461C2.17779 11.6814 2.68663 11.64 3.15402 11.5134C3.62086 11.3864 4.06994 11.1688 4.50017 10.941C4.92986 10.7138 5.33856 10.4758 5.6611 10.3019C5.70633 10.2777 5.7354 10.2717 5.77902 10.2513C6.62817 11.4187 8.18325 12.2032 9.91817 12.2032C9.93486 12.2054 9.95048 12.2032 9.96879 12.2032C10.6688 12.2032 12.9303 14.5154 14.2765 13.6C14.3303 13.3851 13.0929 12.8461 13.031 11.2442C14.0848 10.4995 14.7649 9.39189 14.7649 8.16474C14.7649 6.34905 13.3239 4.84889 11.3995 4.31151C10.7905 2.32997 8.67325 0.895508 6.19956 0.895508ZM6.19956 1.97243C8.64794 1.97243 10.5072 3.61474 10.5072 5.47243C10.5072 7.33012 8.64794 8.97243 6.19956 8.97243C5.76233 8.97243 5.5114 9.1512 5.15602 9.34289C4.80063 9.53405 4.39302 9.77151 3.9951 9.98205C3.65048 10.164 3.32202 10.304 3.0194 10.4026C3.31394 9.9772 3.6214 9.41774 3.67525 8.63589L3.69248 8.33274L3.43994 8.14805C2.4804 7.47551 1.89186 6.50789 1.89186 5.47243C1.89186 3.61474 3.75117 1.97243 6.19956 1.97243Z" fill="black"/>
</g>
<defs>
<clipPath id="clip0_705_7292">
<rect width="14" height="14" fill="white" transform="translate(0.814941 0.895508)"/>
</clipPath>
</defs>
</svg>
