<svg width="16" height="16" viewBox="0 0 16 16" fill="none" xmlns="http://www.w3.org/2000/svg">
<path d="M11.0003 4.00008V11.6667C11.0003 13.1401 9.80699 14.3334 8.33366 14.3334C6.86033 14.3334 5.66699 13.1401 5.66699 11.6667V3.33341C5.66699 2.89139 5.84259 2.46746 6.15515 2.1549C6.46771 1.84234 6.89163 1.66675 7.33366 1.66675C7.77569 1.66675 8.19961 1.84234 8.51217 2.1549C8.82473 2.46746 9.00033 2.89139 9.00033 3.33341V10.3334C9.00033 10.7001 8.70033 11.0001 8.33366 11.0001C7.96699 11.0001 7.66699 10.7001 7.66699 10.3334V4.00008H6.66699V10.3334C6.66699 10.7754 6.84259 11.1994 7.15515 11.5119C7.46771 11.8245 7.89163 12.0001 8.33366 12.0001C8.77569 12.0001 9.19961 11.8245 9.51217 11.5119C9.82473 11.1994 10.0003 10.7754 10.0003 10.3334V3.33341C10.0003 1.86008 8.80699 0.666748 7.33366 0.666748C5.86033 0.666748 4.66699 1.86008 4.66699 3.33341V11.6667C4.66699 13.6934 6.30699 15.3334 8.33366 15.3334C10.3603 15.3334 12.0003 13.6934 12.0003 11.6667V4.00008H11.0003Z" fill="#39566D"/>
</svg>
