<svg width="16" height="16" viewBox="0 0 16 16" fill="none" xmlns="http://www.w3.org/2000/svg">
<path d="M6.79444 3.92085C6.50804 3.97685 6.19444 4.16245 5.94804 4.59765C5.92209 4.64335 5.8874 4.68349 5.84593 4.71578C5.80447 4.74807 5.75706 4.77188 5.70639 4.78585C5.65573 4.79981 5.60281 4.80366 5.55066 4.79718C5.49851 4.79069 5.44814 4.774 5.40244 4.74805C5.35674 4.7221 5.3166 4.6874 5.28431 4.64594C5.25202 4.60448 5.22821 4.55706 5.21425 4.5064C5.20028 4.45573 5.19643 4.40282 5.20291 4.35066C5.2094 4.29851 5.22609 4.24815 5.25204 4.20245C5.60484 3.58165 6.10644 3.24005 6.64084 3.13605C7.13808 3.04214 7.65235 3.14574 8.07444 3.42485C8.46164 3.68085 8.77444 4.09925 8.78404 4.60085C8.79444 5.12485 8.47604 5.59765 7.88884 5.94485C7.49044 6.18005 7.33524 6.34005 7.26884 6.44645C7.21284 6.53605 7.20004 6.61765 7.20004 6.80005C7.20004 6.90614 7.1579 7.00788 7.08289 7.08289C7.00787 7.15791 6.90613 7.20005 6.80004 7.20005C6.69396 7.20005 6.59221 7.15791 6.5172 7.08289C6.44219 7.00788 6.40004 6.90614 6.40004 6.80005C6.40004 6.58245 6.41124 6.31205 6.58964 6.02405C6.75764 5.75445 7.04484 5.51445 7.48164 5.25605C7.90964 5.00245 7.98724 4.76165 7.98484 4.61765C7.98084 4.45205 7.87124 4.24965 7.63284 4.09205C7.38601 3.92875 7.08553 3.8674 6.79444 3.92085ZM7.00004 9.20005C7.15917 9.20005 7.31178 9.13683 7.42431 9.02431C7.53683 8.91179 7.60004 8.75918 7.60004 8.60005C7.60004 8.44092 7.53683 8.28831 7.42431 8.17578C7.31178 8.06326 7.15917 8.00005 7.00004 8.00005C6.84091 8.00005 6.6883 8.06326 6.57578 8.17578C6.46326 8.28831 6.40004 8.44092 6.40004 8.60005C6.40004 8.75918 6.46326 8.91179 6.57578 9.02431C6.6883 9.13683 6.84091 9.20005 7.00004 9.20005ZM6.80004 0.800049C5.89323 0.799837 5.00213 1.03677 4.21517 1.48732C3.42821 1.93787 2.77276 2.58639 2.31385 3.36851C1.85495 4.15063 1.60855 5.03916 1.59911 5.94592C1.58967 6.85268 1.81752 7.74615 2.26004 8.53765L1.62404 10.2032C1.57111 10.3417 1.55768 10.4921 1.58526 10.6378C1.61284 10.7834 1.68034 10.9185 1.78023 11.0281C1.88012 11.1376 2.00848 11.2172 2.15098 11.258C2.29348 11.2988 2.44452 11.2993 2.58724 11.2592L4.57684 10.7016C5.28163 11.0347 6.05228 11.205 6.83176 11.1999C7.61125 11.1949 8.37964 11.0147 9.08009 10.6727C9.78053 10.3306 10.3951 9.83549 10.8784 9.22387C11.3617 8.61225 11.7012 7.89981 11.872 7.13924C12.0428 6.37867 12.0404 5.58944 11.865 4.82993C11.6896 4.07042 11.3456 3.36006 10.8586 2.7514C10.3717 2.14274 9.75406 1.65135 9.05154 1.31358C8.34902 0.975812 7.57955 0.800307 6.80004 0.800049ZM2.40004 6.00005C2.4004 5.04119 2.71397 4.1087 3.29304 3.34444C3.87211 2.58019 4.68498 2.02602 5.60798 1.76624C6.53097 1.50646 7.51356 1.5553 8.40625 1.90533C9.29893 2.25536 10.0528 2.88741 10.5533 3.70532C11.0537 4.52323 11.2732 5.48222 11.1785 6.43639C11.0838 7.39055 10.68 8.28766 10.0285 8.9912C9.37699 9.69475 8.51352 10.1662 7.56944 10.3339C6.62535 10.5016 5.65234 10.3562 4.79844 9.92005L4.65924 9.84805L2.37124 10.4888L3.14644 8.46005L3.04404 8.29205C2.62176 7.60221 2.39885 6.80887 2.40004 6.00005ZM9.17044 13.6C8.42191 13.6009 7.68205 13.4397 7.00168 13.1276C6.3213 12.8155 5.71652 12.3599 5.22884 11.792C5.68829 11.9165 6.16099 11.9855 6.63684 11.9976C7.37789 12.5211 8.26319 12.8014 9.17044 12.8C9.89204 12.8 10.572 12.6264 11.172 12.32L11.3112 12.248L13.5992 12.8888L12.824 10.86L12.9264 10.692C13.3344 10.0248 13.5704 9.24085 13.5704 8.40005C13.5717 7.51169 13.3027 6.64396 12.7992 5.91205C12.7927 5.43613 12.7296 4.96267 12.6112 4.50165C13.1648 4.98904 13.608 5.58886 13.9113 6.2611C14.2147 6.93334 14.3712 7.66253 14.3704 8.40005C14.3704 9.32085 14.1304 10.1864 13.7096 10.9376L14.3464 12.6032C14.3993 12.7416 14.4127 12.892 14.3851 13.0375C14.3576 13.1831 14.2902 13.3181 14.1904 13.4276C14.0906 13.5371 13.9624 13.6167 13.82 13.6576C13.6776 13.6985 13.5267 13.6991 13.384 13.6592L11.3936 13.1016C10.7192 13.4216 9.96484 13.6 9.16964 13.6H9.17044Z" fill="#1D1D1D"/>
</svg>
