<svg width="19" height="15" viewBox="0 0 19 15" fill="none" xmlns="http://www.w3.org/2000/svg">
<path d="M17.6666 3.58252V11.9944C17.6666 12.5521 17.4471 13.087 17.0564 13.4814C16.6657 13.8758 16.1358 14.0973 15.5833 14.0973H3.08333C2.5308 14.0973 2.00089 13.8758 1.61019 13.4814C1.21949 13.087 1 12.5521 1 11.9944V3.58252" stroke="white" stroke-width="1.4" stroke-linecap="round" stroke-linejoin="round"/>
<path d="M17.6666 3.58294C17.6666 3.0252 17.4471 2.49031 17.0564 2.09592C16.6657 1.70154 16.1358 1.47998 15.5833 1.47998H3.08333C2.5308 1.47998 2.00089 1.70154 1.61019 2.09592C1.21949 2.49031 1 3.0252 1 3.58294L8.22915 8.13936C8.56026 8.34825 8.94286 8.45901 9.33331 8.45901C9.72377 8.45901 10.1064 8.34825 10.4375 8.13936L17.6666 3.58294Z" stroke="white" stroke-width="1.4" stroke-linecap="round" stroke-linejoin="round"/>
</svg>
