<svg width="16" height="19" viewBox="0 0 16 19" fill="none" xmlns="http://www.w3.org/2000/svg">
<path d="M14.8607 8.65528C14.8607 14.0341 9.35149 17.3479 8.2066 17.9791C8.14318 18.014 8.07192 18.0324 7.99949 18.0324C7.92706 18.0324 7.85581 18.014 7.79238 17.9791C6.64664 17.3479 1.13916 14.0341 1.13916 8.65528C1.13916 4.36731 3.71195 1.36572 7.99992 1.36572C12.2879 1.36572 14.8607 4.36731 14.8607 8.65528Z" stroke="white" stroke-width="1.4" stroke-linecap="round" stroke-linejoin="round"/>
<path d="M4.56934 8.22628C4.56934 9.13607 4.93075 10.0086 5.57407 10.6519C6.21739 11.2952 7.08992 11.6567 7.99972 11.6567C8.90951 11.6567 9.78204 11.2952 10.4254 10.6519C11.0687 10.0086 11.4301 9.13607 11.4301 8.22628C11.4301 7.31649 11.0687 6.44395 10.4254 5.80063C9.78204 5.15731 8.90951 4.7959 7.99972 4.7959C7.08992 4.7959 6.21739 5.15731 5.57407 5.80063C4.93075 6.44395 4.56934 7.31649 4.56934 8.22628V8.22628Z" stroke="white" stroke-width="1.4" stroke-linecap="round" stroke-linejoin="round"/>
</svg>
