<svg width="20" height="19" viewBox="0 0 20 19" fill="none" xmlns="http://www.w3.org/2000/svg">
<path d="M12.2514 17.2035L12.2605 17.2099C13.0475 17.7158 13.982 17.9354 14.9095 17.8326C15.8369 17.7298 16.7019 17.3107 17.3614 16.6445L17.9343 16.0661C18.0613 15.938 18.162 15.786 18.2308 15.6186C18.2995 15.4512 18.3348 15.2718 18.3348 15.0906C18.3348 14.9094 18.2995 14.73 18.2308 14.5626C18.162 14.3952 18.0613 14.2431 17.9343 14.115L15.5178 11.6775C15.3909 11.5494 15.2402 11.4477 15.0744 11.3783C14.9086 11.309 14.7308 11.2733 14.5513 11.2733C14.3718 11.2733 14.1941 11.309 14.0283 11.3783C13.8625 11.4477 13.7118 11.5494 13.5849 11.6775C13.3287 11.9361 12.9812 12.0813 12.6189 12.0813C12.2566 12.0813 11.9092 11.9361 11.6529 11.6775L7.789 7.77626C7.53285 7.51763 7.38896 7.16689 7.38896 6.80117C7.38896 6.43546 7.53285 6.08472 7.789 5.82609C7.91596 5.69801 8.01668 5.54592 8.0854 5.37854C8.15412 5.21115 8.18949 5.03173 8.18949 4.85054C8.18949 4.66935 8.15412 4.48993 8.0854 4.32254C8.01668 4.15515 7.91596 4.00307 7.789 3.87499L5.37335 1.4375C5.11713 1.17894 4.76966 1.03369 4.40736 1.03369C4.04507 1.03369 3.6976 1.17894 3.44138 1.4375L2.86753 2.01584C2.20768 2.68169 1.79262 3.55486 1.69093 4.49106C1.58924 5.42726 1.80701 6.37046 2.30825 7.16482L2.31371 7.17402C4.96089 11.1275 8.33432 14.5321 12.2514 17.2035Z" fill="white" stroke="white" stroke-width="1.4" stroke-linecap="round" stroke-linejoin="round"/>
</svg>
