<svg width="23" height="22" viewBox="0 0 23 22" fill="none" xmlns="http://www.w3.org/2000/svg">
<path d="M16.9379 14.4136C16.4151 14.4136 15.8989 14.5258 15.427 14.7422C14.9551 14.9586 14.5393 15.2737 14.2102 15.6645L9.13611 12.5327C9.38027 12.0658 9.50744 11.5505 9.50744 11.0279C9.50744 10.5053 9.38027 9.98993 9.13611 9.52308L14.2102 6.39124C14.7826 7.07191 15.6043 7.51576 16.5064 7.63154C17.4085 7.74732 18.3225 7.52623 19.0603 7.01372C19.7982 6.50121 20.3039 5.73624 20.4734 4.87609C20.643 4.01593 20.4636 3.12597 19.972 2.38917C19.4805 1.65237 18.7141 1.12474 17.8306 0.914754C16.9471 0.704771 16.0135 0.828394 15.2218 1.26021C14.4301 1.69202 13.8405 2.39921 13.5741 3.23636C13.3078 4.07352 13.385 4.97703 13.7898 5.76112L8.71571 8.89295C8.25726 8.35011 7.6353 7.95717 6.9353 7.76812C6.23531 7.57908 5.49163 7.60321 4.80646 7.8372C4.1213 8.07119 3.52828 8.50356 3.1089 9.07489C2.68952 9.64622 2.46436 10.3285 2.46436 11.0279C2.46436 11.7273 2.68952 12.4095 3.1089 12.9809C3.52828 13.5522 4.1213 13.9845 4.80646 14.2185C5.49163 14.4525 6.23531 14.4767 6.9353 14.2876C7.6353 14.0986 8.25726 13.7056 8.71571 13.1628L13.7898 16.2946C13.4496 16.9543 13.3422 17.7027 13.484 18.4263C13.6257 19.15 14.0088 19.8095 14.5753 20.3048C15.1417 20.8001 15.8606 21.1043 16.6229 21.1712C17.3853 21.2381 18.1495 21.0641 18.7998 20.6755C19.45 20.287 19.9509 19.7051 20.2264 19.0181C20.502 18.3311 20.5372 17.5763 20.3267 16.8683C20.1161 16.1604 19.6714 15.5377 19.0599 15.0947C18.4484 14.6517 17.7034 14.4126 16.9379 14.4136ZM16.9379 1.62295C17.4794 1.62295 18.0086 1.77739 18.4588 2.06675C18.909 2.35611 19.2598 2.76739 19.467 3.24858C19.6742 3.72976 19.7284 4.25925 19.6228 4.77007C19.5172 5.2809 19.2565 5.75012 18.8736 6.11841C18.4908 6.48669 18.003 6.7375 17.472 6.83911C16.941 6.94072 16.3906 6.88857 15.8903 6.68925C15.3901 6.48994 14.9626 6.15241 14.6618 5.71935C14.361 5.2863 14.2004 4.77716 14.2004 4.25633C14.203 3.55868 14.4923 2.8903 15.0051 2.39699C15.5179 1.90367 16.2127 1.62543 16.9379 1.62295ZM5.988 13.6613C5.44658 13.6613 4.91732 13.5068 4.46714 13.2174C4.01696 12.9281 3.66609 12.5168 3.4589 12.0356C3.25171 11.5544 3.19749 11.025 3.30312 10.5141C3.40875 10.0033 3.66947 9.53408 4.05231 9.16579C4.43515 8.79751 4.92293 8.5467 5.45395 8.44509C5.98497 8.34348 6.53538 8.39563 7.03559 8.59495C7.5358 8.79426 7.96334 9.13179 8.26414 9.56485C8.56493 9.9979 8.72548 10.507 8.72548 11.0279C8.72291 11.7255 8.43367 12.3939 7.92085 12.8872C7.40803 13.3805 6.71324 13.6588 5.988 13.6613ZM16.9379 20.4328C16.3965 20.4328 15.8672 20.2783 15.4171 19.989C14.9669 19.6996 14.616 19.2884 14.4088 18.8072C14.2016 18.326 14.1474 17.7965 14.253 17.2857C14.3587 16.7748 14.6194 16.3056 15.0022 15.9373C15.3851 15.5691 15.8729 15.3182 16.4039 15.2166C16.9349 15.115 17.4853 15.1672 17.9855 15.3665C18.4857 15.5658 18.9133 15.9033 19.2141 16.3364C19.5149 16.7694 19.6754 17.2786 19.6754 17.7994C19.6728 18.4971 19.3836 19.1654 18.8708 19.6588C18.358 20.1521 17.6632 20.4303 16.9379 20.4328Z" fill="white"/>
</svg>
