<svg width="26" height="25" viewBox="0 0 26 25" fill="none" xmlns="http://www.w3.org/2000/svg">
<path d="M24.3292 8.19528C18.3371 2.20647 8.59175 2.20647 2.59967 8.19528C1.61904 9.17719 1.02929 10.4821 0.940443 11.8666C0.851593 13.2511 1.26971 14.6206 2.11679 15.7197C2.29372 15.9453 2.53953 16.1071 2.81685 16.1803C3.09417 16.2536 3.38784 16.2343 3.65322 16.1255L8.84416 14.0525C9.04696 13.9701 9.22622 13.8388 9.366 13.6704C9.50577 13.502 9.60172 13.3017 9.6453 13.0872L10.2928 9.85153C10.304 9.77808 10.3356 9.70928 10.3842 9.65301C10.4327 9.59674 10.4961 9.5553 10.5672 9.53344C12.4316 8.88451 14.4595 8.87679 16.3288 9.51151C16.3977 9.54005 16.4588 9.58491 16.5065 9.64223C16.5543 9.69954 16.5875 9.76761 16.6031 9.84056L17.2836 13.0982C17.3269 13.3114 17.423 13.5104 17.5629 13.677C17.7028 13.8437 17.8822 13.9727 18.0847 14.0525L23.2756 16.1255C23.5413 16.2325 23.8344 16.2508 24.1113 16.1777C24.3882 16.1045 24.634 15.9439 24.8121 15.7197C25.6591 14.6206 26.0773 13.2511 25.9884 11.8666C25.8996 10.4821 25.3098 9.17719 24.3292 8.19528ZM24.1097 15.1822C24.0531 15.2583 23.9722 15.3128 23.8804 15.3367C23.7886 15.3606 23.6914 15.3526 23.6049 15.3139L18.4139 13.2408C18.3458 13.2141 18.2851 13.1712 18.2373 13.1157C18.1895 13.0603 18.1559 12.994 18.1396 12.9227L17.4591 9.6541C17.4154 9.43327 17.3143 9.22783 17.1659 9.05841C17.0176 8.88899 16.8273 8.76154 16.6141 8.68887C14.5578 7.98457 12.3247 7.98843 10.2708 8.69984C10.0591 8.77813 9.87051 8.90869 9.72277 9.07936C9.57502 9.25004 9.47287 9.4553 9.42581 9.67603L8.77831 12.9227C8.7669 12.9944 8.73645 13.0618 8.69012 13.1177C8.64379 13.1737 8.58329 13.2162 8.51492 13.2408L3.32398 15.3139C3.2374 15.3526 3.14021 15.3606 3.04843 15.3367C2.95666 15.3128 2.87578 15.2583 2.81916 15.1822C2.0993 14.2546 1.74329 13.0961 1.81807 11.9246C1.89284 10.753 2.39326 9.64916 3.22521 8.82049C5.94301 6.11049 9.62535 4.58856 13.4644 4.58856C17.3035 4.58856 20.9858 6.11049 23.7036 8.82049C24.5356 9.64916 25.036 10.753 25.1108 11.9246C25.1856 13.0961 24.8296 14.2546 24.1097 15.1822ZM23.561 19.9316C23.561 20.048 23.5147 20.1596 23.4324 20.2418C23.3501 20.3241 23.2384 20.3703 23.122 20.3703H3.80686C3.69044 20.3703 3.57878 20.3241 3.49646 20.2418C3.41413 20.1596 3.36788 20.048 3.36788 19.9316C3.36788 19.8152 3.41413 19.7036 3.49646 19.6214C3.57878 19.5391 3.69044 19.4929 3.80686 19.4929H23.122C23.2384 19.4929 23.3501 19.5391 23.4324 19.6214C23.5147 19.7036 23.561 19.8152 23.561 19.9316Z" fill="white"/>
</svg>
