<svg width="27" height="27" viewBox="0 0 27 27" fill="none" xmlns="http://www.w3.org/2000/svg">
<path d="M22.967 4.77051C23.6083 4.77051 24.092 5.33301 23.8333 6.37926L20.6945 21.173C20.4751 22.2249 19.8395 22.478 18.962 21.9886L11.4751 16.4593C11.4461 16.4384 11.4225 16.411 11.4061 16.3792C11.3898 16.3474 11.3813 16.3122 11.3813 16.2764C11.3813 16.2407 11.3898 16.2055 11.4061 16.1737C11.4225 16.1419 11.4461 16.1145 11.4751 16.0936L20.1208 8.28613C20.5145 7.93738 20.0364 7.76863 19.5189 8.08363L8.66827 14.9293C8.63536 14.9507 8.598 14.9644 8.55901 14.9693C8.52003 14.9742 8.48045 14.9701 8.44327 14.9574L3.83639 13.5005C2.81264 13.2024 2.81264 12.4993 4.06702 11.9986L22.5001 4.88863C22.6463 4.8185 22.8051 4.77834 22.967 4.77051V4.77051Z" stroke="#F9D119" stroke-linecap="round" stroke-linejoin="round"/>
</svg>
