<svg width="1384" height="782" viewBox="0 0 1384 782" fill="none" xmlns="http://www.w3.org/2000/svg">
<g clip-path="url(#clip0_247_4585)">
<path d="M1047.59 120.607C1056.8 122.344 1065.67 123.1 1067.14 135.339C1067.89 141.572 1076.94 142.21 1083.63 142.378C1095.62 142.682 1098.75 144.482 1098.04 154.412C1097.46 162.43 1100.25 164.803 1108.32 165.463C1118.95 166.332 1128.91 169.146 1140.1 165.152C1150.16 161.559 1155.92 166.302 1160.7 177.562C1161.71 179.947 1163.17 183.128 1166.17 181.408C1179.84 173.57 1196.18 179.676 1210.83 172.759C1220.56 168.165 1234.43 170.246 1244.2 178.963C1248.92 183.178 1254.53 185.204 1260.39 181.498C1266.6 177.569 1271.75 181.184 1274.95 184.24C1285.1 193.943 1296.57 191.059 1308.23 188.995C1309.79 188.719 1311.3 188.197 1312.83 187.79C1319.16 186.105 1313.23 199.6 1320.33 193.848C1324.09 190.8 1326.72 190.162 1330.97 189.683C1350.34 187.496 1364.63 197.702 1379.48 206.747L1372.38 222.25C1371.86 222.129 1371.35 222.017 1370.83 221.916C1366.61 221.1 1362.77 214.251 1361.5 216.124C1358.87 219.991 1353.58 223.297 1354.27 228.705C1355.15 235.644 1351.46 237.283 1344.84 237.577C1338.95 237.838 1332.93 238.807 1328.36 243.133C1324.65 246.66 1320.24 246.731 1314.97 246.542C1301.36 246.055 1294.02 252.061 1292.32 264.882C1290.57 278.033 1277.35 282.753 1270.36 292.014C1268.1 295.007 1266.07 291.128 1264.86 289.132C1259.31 279.999 1262.75 271.508 1267.7 263.494C1270.09 259.618 1273.94 256.535 1276.98 252.977C1278.82 250.821 1283.62 249.435 1281.43 246.081C1279.5 243.113 1275.06 242.307 1271.21 242.4C1266.4 242.518 1263.15 245.581 1260.93 249.058C1257.07 255.119 1252.52 254.227 1245.82 253.113C1228.37 250.208 1210.31 248.508 1198.16 264.772C1194.94 269.077 1184.98 269.705 1188.02 276.697C1190.88 283.277 1199.67 278.924 1205.63 280.629C1210.04 281.886 1215.97 280.475 1216.17 285.981C1216.38 291.916 1222.89 298.559 1215.63 303.846C1213.38 305.488 1211.35 306.488 1211.04 309.282C1210.89 310.69 1210.94 312.822 1209.08 312.817C1207.33 312.812 1207.52 310.708 1207.34 309.355C1207.21 308.356 1207.3 307.334 1207.18 306.332C1206.83 303.523 1208.16 300.475 1205.81 297.947C1204.99 300.791 1204.71 303.904 1203.26 306.437C1196.35 318.531 1188.98 329.954 1172.82 333.594C1158.02 336.928 1156.55 339.743 1160.11 353.626C1161.41 358.688 1161.44 362.998 1155.59 364.788C1149.94 366.518 1148.19 361.645 1146.24 358.271C1144.73 355.67 1143.89 352.612 1143.4 349.667C1142.68 345.354 1140.11 344.965 1136.49 346.2C1133.67 347.162 1130.68 350.42 1128.11 346.559C1126.34 343.895 1125.21 342.133 1122.65 345.474C1121.11 347.475 1118.7 349.941 1119 351.889C1119.65 356.127 1123.04 352.697 1125.24 352.896C1131.53 353.468 1137.45 354.164 1129.19 361.05C1125.44 364.173 1126.56 368.261 1127.42 372.338C1131.81 393.16 1122.2 408.543 1100.92 415.603C1095.6 417.368 1088.96 417.066 1086.67 424.028C1085.21 428.464 1083.02 428.088 1080.9 423.646C1078.33 418.276 1074.48 421.713 1071.6 423.586C1067.69 426.132 1067.63 429.32 1071.26 432.376C1072.87 433.732 1074.59 434.982 1076.1 436.43C1086.37 446.31 1082.76 460.14 1068.78 465.3C1064.92 466.723 1064.33 464.278 1062.79 462.244C1058.59 456.713 1051.34 450.186 1045.95 454.715C1039 460.56 1046.35 467.501 1051.89 472.42C1055.96 476.037 1060.75 480.393 1059.72 485.093C1057.35 495.843 1067.61 502.381 1068.26 511.904C1068.55 516.197 1073 516.839 1076.71 517.793C1087.58 520.593 1097.7 526.377 1109.71 524.637C1111.78 524.338 1114.81 525.109 1114.96 527.173C1115.18 530.1 1111.91 529.257 1109.99 529.417C1096.29 530.56 1082.26 528.416 1069.94 524.758C1060.44 521.938 1052.4 511.788 1046.23 503.317C1041.1 496.263 1035.48 489.529 1029.4 483.16C1027.62 481.299 1024.29 480.125 1026.44 477.31C1028.87 474.137 1032.4 475.385 1034.92 477.441C1038.57 480.426 1041.75 483.9 1045.18 487.127C1046.31 488.196 1047.94 489.366 1049.31 488.289C1050.92 487.029 1049.2 485.658 1048.35 484.563C1039.44 472.974 1036.09 460.118 1037.32 445.95C1037.77 440.668 1036.84 435.381 1028.4 437.073C1021.14 438.529 1021.34 432.095 1018.81 428.781C1008.23 414.872 1004.3 414.515 990.707 425.79C987.584 428.379 984.162 430.656 980.748 432.906C969.006 440.646 965.911 452.111 971.944 464.84C973.179 467.449 976.207 470.336 972.863 472.977C969.782 475.412 967.184 472.332 964.248 471.4C950.7 467.1 945.597 456.615 943.734 445.335C940.958 428.532 927.34 418.819 917.606 406.509C915.108 403.348 911.378 402.681 907.464 402.618C902.574 402.538 897.643 402.136 892.802 402.575C889.788 402.849 886.92 402.442 884.093 401.867C879.27 400.888 876.41 406.642 880.343 409.411C882.219 410.732 884.255 411.935 885.99 413.366C889.115 415.942 885.898 417.503 884.99 419.687C879.249 433.508 864.93 437.066 852.628 442.315C844.935 445.596 837.65 450.557 828.652 451.049C826.981 451.14 825.319 451.956 825.319 453.728C825.319 456.121 827.357 457.276 829.525 457.456C835.036 457.918 839.891 455.127 845.162 454.346C852.504 453.261 856.045 457.886 852.772 464.084C846.314 476.319 838.01 487.604 826.116 496.205C807.902 509.378 806.167 514.758 812.998 534.489C818.35 549.951 817.723 552.284 803.204 562.512C797.666 566.416 792.919 569.993 795.673 577.382C796.763 580.304 797.03 584.299 794.424 585.968C784.009 592.649 780.601 603.761 774.062 612.799C763.549 627.328 747.439 626.63 731.939 627.724C727.082 628.068 723.419 623.594 722.927 620.097C721.154 607.512 714.434 596.056 709.776 584.956C702.61 567.877 697.234 553.152 704.413 535.144C706.473 529.975 703.759 521.436 700.096 516.415C693.96 508.002 691.044 499.526 691.327 489.63C691.417 486.476 689.57 482.55 686.148 483.012C676.817 484.272 669.248 476.288 661.431 477.923C652.659 479.758 643.055 478.154 634.994 482.811C629.58 485.939 624.79 484.681 619.859 481.671C607.479 474.114 600.465 461.752 589.663 452.784C588.53 451.843 587.846 449.995 588.117 448.607C591.831 429.506 584.727 407.541 604.133 392.555C613.567 385.27 617.292 374.105 626.369 366.639C630.18 363.503 630.356 359.258 624.563 357.159C620.7 355.758 616.672 353.742 617.929 349.868C620.024 343.413 615.991 336.61 619.513 330.702C622.676 325.402 628.818 326.364 634.197 326.63C650.229 327.423 651.694 326.281 648.845 311.097C647.639 304.665 649.288 301.665 655.206 297.688C662.069 293.074 668.627 287.708 675.603 283.132C686.827 275.766 688.094 272.904 680.08 261.716C677.571 258.217 675.944 254.792 674.955 250.851C672.203 239.869 674.057 235.144 685.218 230.274C693.006 226.877 698.845 222.431 702.27 215.002C708.219 202.095 719.68 194.779 733.247 189.929C738.816 187.938 744.633 186.55 750.239 184.639C760.227 181.235 768.758 179.661 777.814 188.561C783.774 194.418 795.146 193.516 803.037 198.266C805.718 199.883 809.886 200.162 811.565 202.286C818.134 210.588 822.948 214.887 826.678 200.523C827.535 197.227 833.209 196.127 836.269 199.512C840.918 204.656 845.105 203.451 850.382 200.621C859.232 195.876 869.498 198.282 879.03 196.557C889.145 194.727 882.509 190.677 881.206 187.185L881.387 186.976C889.345 188.49 897.265 190.215 905.274 191.43C909.513 192.073 912.5 192.168 913.816 186.005C916.673 172.626 923.142 170.103 938.958 171.486C944.618 171.981 950.089 171.074 955.823 173.427C959.134 174.785 965.073 174.187 965.992 168.724C967.273 161.105 971.466 162.086 977.645 163.769C983.359 165.323 991.158 167.981 991.077 157.269C991.055 154.462 994.791 153.95 997.416 153.417C1008.94 151.083 1019.7 146.167 1032.13 146.682C1043.54 147.154 1046.62 140.116 1040.48 130.011C1043.85 127.536 1045.78 124.114 1047.59 120.607ZM681.866 329.254C669.835 331.227 661.671 337.968 656.771 347.681C654.376 352.429 652.289 356.687 646.993 359.024C645.228 359.802 641.649 359.355 642.082 361.495C642.42 363.162 646.031 362.813 647.967 362.185C657.665 359.044 667.318 356.104 677.714 355.266C683.394 354.806 688.492 355.565 693.441 357.668C698.307 359.737 697.682 364.01 697.95 368.067C698.161 371.22 700.818 373.849 704.216 374.012C715.104 374.532 725.479 383.106 737.013 375.634C738.792 374.482 742.66 374.72 744.828 375.707C756.824 381.177 769.656 377.381 781.985 378.956C788.024 379.726 790.17 374.236 791.327 370.164C792.74 365.183 788.388 365.082 784.212 364.813C780.595 364.58 776.843 361.768 773.556 362.29C762.236 364.088 757.251 359.722 756.535 349.63C756.392 347.591 755.059 345.648 752.331 345.997C750.496 346.233 750.656 348.103 749.961 349.343C745.952 356.509 735.575 357.739 730.612 351.643C729.106 349.795 728.974 344.892 726.787 345.911C715.518 351.163 710.533 341.445 703.024 338.071C698.093 335.854 695.028 335.04 694.533 341.689C694.271 345.226 692.141 349.692 687.846 348.517C681.674 346.83 687.151 342.856 687.416 339.856C687.824 335.359 691.327 329.374 681.866 329.254ZM724.868 274.176C732.38 274.54 731.758 274.174 734.81 269.708C741.976 259.216 739.135 248.845 735.394 238.396C734.342 235.456 734.761 230.025 728.96 231.946C724.543 233.41 721.778 238.185 724.641 241.797C734.315 254.019 721.586 259.919 716.38 267.31C713.125 271.932 706.584 276.619 701.059 267.89C700.25 266.612 698.388 265.578 697.08 266.783C696.142 267.646 695.769 269.612 696.031 270.935C697.755 279.607 705.111 277.759 711.398 277.774C716.247 277.787 719.321 271.982 724.868 274.176ZM814.247 335.186C811.954 326.889 799.282 327.607 797.409 318.087C796.982 315.915 793.787 321.421 791.513 323.017C787.913 325.545 784.277 326.301 782.047 322.144C780.222 318.742 778.26 316.698 775.086 319.804C771.459 323.354 767.164 327.019 767.861 332.751C768.304 336.394 771.321 338.472 774.635 337.802C785.037 335.698 794.67 337.049 804.491 340.639C808.605 342.14 813.111 340.338 814.247 335.186ZM803.994 413.946C800.59 414.628 800.458 416.926 800.28 419.439C799.755 426.765 805.426 431.025 809.597 436.014C811.489 438.276 813.433 442.32 816.56 441.082C821.075 439.295 818.231 435.178 817.377 432.069C815.758 426.165 811.07 421.846 807.786 416.805C807.035 415.645 805.407 414.977 803.994 413.946ZM-9.78223 284.435C3.81179 276.692 17.5761 269.288 32.792 264.518C34.7328 263.911 37.4306 262.793 37.2197 260.614C36.9764 258.091 33.6975 259.188 31.9784 258.249C24.9746 254.423 17.714 250.931 11.0751 246.615C2.87381 241.283 3.25495 236.869 11.6995 232.092C13.5214 231.06 15.665 230.525 17.6491 229.732C19.9224 228.82 24.5502 229.448 23.6419 226.332C22.8445 223.596 18.8898 226.182 16.3462 226.049C14.208 225.938 11.9104 226.051 9.98303 225.351C6.26623 224 2.98734 221.427 3.65231 217.5C4.49838 212.501 9.27751 212.115 13.7566 212.067C15.7515 212.045 18.6114 214.216 19.498 211.896C20.3225 209.742 16.9057 209.398 15.1838 208.362C2.31967 200.604 2.36832 198.706 15.3271 191.719C18.606 189.951 21.6767 187.78 25.1178 186.366C34.9004 182.349 44.0938 179.917 55.6388 183.688C68.1516 187.775 82.224 187.536 95.4234 190.064C111.799 193.2 127.347 193.273 144.047 189.331C160.088 185.545 177.282 188.362 193.371 193.617C195.304 194.247 197.783 195.834 199.286 193.75C200.645 191.864 198.986 189.818 197.166 188.681C194.45 186.986 191.966 185.563 191.276 182.048C190.495 178.066 187.959 177.178 184.654 180.479C180.734 184.393 176.017 184.323 171.206 182.377C166.28 180.386 162.515 177.464 165.924 171.946C167.832 168.855 169.922 166.033 169.692 162.22C169.367 156.869 174.403 155.692 177.274 157.404C186.511 162.907 198.091 159.857 207.473 166.59C215.188 172.129 225.841 173.753 236.018 167.991C241.892 164.667 248.091 163.932 246.807 173.741C246.309 177.549 247.685 181.707 250.723 183.2C259.065 187.3 266.064 190.461 254.189 198.482C251.699 200.164 253.551 203.333 256.649 204.149C260.341 205.12 265.637 205.796 266.061 201.422C266.558 196.298 268.472 193.516 272.778 190.561C279.804 185.741 278.622 182.799 269.599 182.711C262.268 182.638 259.757 175.583 254.24 172.774C260.665 171.7 263.19 164.542 270.118 164.1C273.889 163.859 277.625 163.101 281.369 162.528C286.71 161.712 290.367 159.242 291.154 153.915C291.554 151.213 291.343 148.723 287.908 148.087C283.007 147.184 278.698 144.477 274.276 151.068C268.031 160.369 255.659 152.584 247.012 156.844L244.771 151.334C246.125 149.998 246.277 148.665 244.766 147.332C245.877 141.974 241.69 137.144 244.487 131.136C249.18 121.059 250.358 120.029 259.819 125.598C262.641 127.26 266.253 129.133 265.15 132.359C263.671 136.672 259.738 133.016 256.927 133.192C253.437 133.411 250.077 133.702 250.039 137.769C250.002 141.771 253.183 142.481 256.784 142.461C260.576 142.441 264.38 142.788 268.159 142.599C275.13 142.253 279.203 140.056 273.6 133.35C271.162 130.431 268.031 127.207 272.051 124.26C276.235 121.189 279.139 125.65 281.166 128.025C283.191 130.398 290.292 130.395 286.088 136.915C284.815 138.891 291.554 140.239 294.995 141.028C296.641 141.404 298.261 140.47 298.671 138.766C299.504 135.304 297.728 132.996 294.544 131.427C294.041 131.188 293.557 130.914 293.098 130.609C272.986 116.881 273.227 112.575 294.822 100.771C298.558 98.7228 302.606 97.2127 306.829 96.2916C328.936 91.396 351.59 89.9826 374.026 87.5448C383.404 86.5255 393.338 89.508 402.955 91.0269C406.61 91.6044 412.997 93.0053 413.087 94.3284C413.349 98.1746 407.597 98.034 405.026 100.489C403.566 101.885 400.844 102.879 402.296 105.224C403.953 107.898 407.621 108.026 409.205 106.053C418.642 94.3108 431.803 97.2808 444.748 96.5326C455.282 95.9251 465.922 94.6372 476.748 91.1776C488.669 87.3665 502.887 86.2619 516.281 85.2652C518.965 85.0668 522.417 86.4828 524.293 85.3731C540.496 75.8028 554.044 90.0453 569.17 89.3675C570.973 89.2871 572.363 90.7031 571.784 92.3826C571.352 93.6379 569.952 95.4406 568.852 95.5234C561.294 96.0983 553.698 96.249 546.118 96.6281C544.556 96.7059 543.015 97.1829 541.463 97.4766C542.382 99.9395 544.74 99.0985 546.451 99.096C562.64 99.0608 578.799 101.185 595.039 99.3772C598.983 98.9378 604.7 98.4156 605.476 103.926C606.087 108.262 601.124 109.083 597.897 110.727C586.295 116.642 573.358 121.844 582.245 137.987C583.356 140.003 580.472 141.866 580.521 143.433C580.959 157.354 567.857 168.235 570.654 182.749C571.441 186.831 568.681 191.089 564.213 192.369C554.452 195.166 546.859 203.157 535.711 202.512C534.657 202.452 533.351 202.519 532.535 203.039C516.576 213.177 495.324 217.987 489.98 238.898C487.95 246.839 482.943 247.83 475.307 245.802C463.211 242.588 457.229 234.04 451.152 224.811C444.856 215.248 442.126 206.592 451.768 197.611C453.274 196.21 453.169 194.453 451.063 192.623C446.254 188.445 437.755 174.757 436.479 170.206C432.568 156.242 417.598 144.841 402.766 148.522C386.377 152.589 380.479 142.456 372.248 134.437C368.901 131.179 371.834 128.899 374.859 127.496C379.187 125.485 384.285 125.497 388.477 122.718C391.875 120.466 392.105 118.543 390.372 115.229C388.545 111.732 386.307 112.962 383.831 113.883C369.101 119.361 356.029 126.072 351.193 141.987C349.574 147.322 345.038 151.675 343.551 157.786C342.273 163.043 334.52 161.845 329.292 162.634C327.387 162.923 324.086 161.248 323.919 163.698C323.794 165.516 327.754 164.647 329.452 165.554C341.2 171.815 355.77 168.004 367.496 175.89C376.832 182.169 387.834 185.46 392.378 197.265C394.595 203.027 403.188 205.11 409.659 207.636C412.684 208.816 417.071 209.727 413.768 213.36C411.181 216.205 409.954 223.026 403.034 219.637C400.704 218.494 398.968 216.323 396.911 214.676C395.716 213.719 394.097 212.441 392.77 213.521C391.305 214.711 392.732 216.192 393.751 217.269C395.184 218.785 396.935 220.068 398.206 221.683C400.525 224.63 406.602 227.387 401.847 231.446C398.26 234.512 393.743 239.445 387.669 236.799C375.702 231.589 364.982 223.199 350.323 225.619C348.933 225.848 347.568 224.138 347.544 222.494C347.514 220.653 348.925 219.9 350.69 219.77C353.391 219.569 356.248 219.935 358.773 219.237C365.704 217.319 369.961 209.363 367.493 203.629C364.625 196.968 347.249 189.223 339.024 190.1C333.193 190.722 336.999 192.854 336.604 195.156C335.493 201.643 341.059 211.924 326.192 212.479C320.913 212.677 325.092 216.717 327.219 218.547C331.085 221.873 340.127 222.398 339.067 227.244C338.059 231.863 329.244 225.147 324.775 229.852C322.916 231.81 319.448 232.014 317.226 230.329C308.505 223.721 303.24 230.58 297.671 234.677C281.107 246.869 281.79 253.607 301.02 262.214C305.37 264.159 309.378 267.087 314.033 268.139C326.159 270.883 336.491 275.08 339.537 287.965C340.075 290.234 343.092 294.346 346.738 291.168C348.744 289.418 348.758 286.501 347.209 284.389C342.459 277.912 343.357 273.614 351.504 270.303C355.14 268.826 354.034 264.938 352.512 262.239C349.806 257.443 350.844 252.385 350.596 247.406C349.963 234.64 357.683 229.968 370.061 236.033C374.767 238.34 380.181 241.047 382.817 244.986C387.239 251.596 390.716 255.023 399.274 250.095C404.837 246.891 408.794 251.81 410.592 255.812C414.525 264.566 421.718 270.205 429.038 276.248C434.612 280.85 443.432 284.982 438.182 294.831C436.485 298.012 440.318 298.715 442.418 300.03C446.067 302.318 449.481 304.851 450.292 309.214C450.665 311.22 449.268 314.758 449.003 314.567C443.029 310.271 435.896 314.361 430.019 312.172C426.056 310.695 425.835 306.794 427.319 302.988C429.597 297.141 426.297 297.291 421.604 298.371C418.485 299.089 415.046 299.548 411.913 299.109C400.62 297.53 401.255 301.095 404.688 309.46C407.734 316.884 410.854 316.304 416.536 313.324C419.193 311.931 421.991 312.244 423.234 315.139C424.415 317.888 422.572 321.104 420.315 321.443C411.846 322.719 404.931 332.196 394.87 325.533C391.843 323.529 386.755 325.051 386.236 327.288C384.182 336.165 376.127 338.503 369.482 342.577C368.228 343.345 367.312 344.92 366.763 346.3C361.873 358.547 354.886 369.029 343.3 377.261C337.413 381.444 337.031 388.717 343.073 394.73C346.038 397.68 346.876 401.752 342.881 403.876C338.924 405.977 338.367 400.702 335.991 399.07C333.458 397.331 331.317 394.805 329.711 392.242C324.978 384.69 317.71 383.876 309.968 386.181C305.229 387.592 300.653 388.659 295.714 388.662C285.994 388.667 277.317 388.22 279.571 402.349C280.412 407.619 272.297 413.539 279.72 420.267C285.126 425.165 290.011 427.49 296.831 423.536C299.131 422.203 301.283 420.639 303.61 419.346C307 417.46 311.217 416.014 314.45 417.875C319.41 420.732 314.552 424.324 313.241 426.802C309.024 434.788 309.854 438.926 320.648 438.843C326.405 438.8 329.619 442.375 329.752 447.633C329.876 452.558 327.627 458.752 334.409 460.655C341.483 462.638 350.463 463.311 355.983 459.214C367.866 450.394 379.573 452.262 392.348 455.98C395.784 456.98 399.352 457.451 402.944 457.67C423.667 458.94 435.071 477.117 454.096 481.41C460.583 502.263 483.768 499.039 498.695 507.698C502.563 509.943 507.531 511.095 511.716 513.493C519.784 518.122 522.009 524.065 515.886 531.042C509.764 538.016 508.18 546.191 505.574 554.453C501.29 568.033 498.651 583.719 477.632 584.954C471.966 585.288 469.022 590.239 467.346 595.523C460.621 616.733 458.191 618.97 433.52 627.822C431.606 628.51 431.052 629.213 431.679 630.845C435.555 640.922 428.124 643.666 420.261 644.349C412.911 644.99 412.535 650.666 409.618 654.361C404.374 661.007 403.153 670.058 395.335 675.335C394.849 675.664 395.395 678.584 396.327 679.249C401.382 682.852 399.141 685.174 395.927 688.925C385.266 701.377 385.458 702.06 395.032 715.015C396.562 717.083 399.52 718.625 394.716 720.126C381.73 724.183 369.539 718.575 364.62 706.567C360.781 697.202 360.554 686.969 363.236 678.215C368.834 659.932 368.017 640.935 372.775 622.397C376.416 608.204 379.354 592.415 379.598 576.965C379.752 567.297 375.6 559.853 367.355 555.327C358.229 550.315 353.115 543.276 349.677 534.504C348.763 532.174 347.122 530.095 345.968 527.836C342.922 521.873 330.817 519.902 337.764 509.345C341.521 503.636 339.87 495.329 346.792 490.609C351.25 487.571 351.477 483.152 351.734 478.455C352.009 473.436 350.707 471.368 344.762 470.83C334.012 469.861 322.743 468.784 320.094 455.739C319.518 452.905 315.863 452.594 313.444 452.139C300.956 449.782 291.105 442.082 276.671 441.592C264.488 441.18 248.069 435.439 241.887 420.368C239.157 413.712 236.102 408.874 224.806 410.998C215.567 412.735 209.571 401.943 206.435 394.122C201.545 381.933 194.574 372.574 183.283 364.181C171.078 355.11 167.727 340.207 168.035 325.724C168.246 315.827 169.054 306.46 157.593 301.075C155.152 299.927 154.152 298.082 153.814 295.12C152.47 283.37 151.432 282.712 137.998 281.721C133.675 281.402 133.846 277.993 132.256 275.507C122.484 260.238 110.074 248.933 89.3387 246.851C81.824 246.096 77.2097 249.696 71.2115 250.773C64.8456 251.915 57.2688 249.159 61.4532 260.147C62.6886 263.396 57.2093 268.314 52.7275 266.969C44.5344 264.506 40.6311 268.583 36.4304 273.418C35.4302 274.571 34.1544 276.346 32.9461 276.388C18.1005 276.913 5.82832 286.057 -8.83073 287.053L-9.78223 284.435ZM298.831 171.72C296.168 172.136 293.508 172.623 291.662 174.68C289.556 177.024 290.348 179.485 292.108 181.448C297.806 187.802 302.042 195.676 312.122 197.569C314.079 197.935 311.614 203.466 315.834 202.499C317.893 202.03 320.015 199.193 320.761 197.026C321.724 194.232 318.985 192.284 316.434 191.699C307.689 189.695 304.602 183.944 303.664 176.422C303.342 173.854 302.499 171.464 298.831 171.72Z" fill="#1D1D1D" fill-opacity="0.6"/>
<path d="M1207.22 545.382C1207.08 537.976 1207.38 531.634 1198.82 529.714C1197.77 529.48 1195.87 528.953 1195.9 528.727C1197.79 513.41 1183.26 515.881 1174.82 511.731C1172.96 510.812 1171.39 509.25 1169.92 507.781C1167.3 505.153 1164.25 501.924 1167.28 498.545C1170.83 494.583 1176.5 495.904 1178.4 499.466C1182.38 506.923 1187.31 504.708 1194.13 504.148C1209.24 502.906 1221.36 510.42 1229.59 521.492C1232.79 525.792 1241.77 530.61 1238.99 533.462C1234.55 538.006 1228.84 531.062 1223.8 528.702C1219.75 526.804 1216.22 527.748 1213.54 530.63C1210.55 533.849 1212.54 537.037 1214.23 540.384C1222.48 556.688 1234.62 570.531 1246.21 584.731C1256.99 597.946 1257.6 605.245 1248.95 619.645C1247.35 622.304 1245.71 624.948 1244.35 627.717C1233.91 648.999 1216.6 651.623 1198.85 636.007C1190.45 628.618 1180.34 622.831 1170.61 616.866C1164.54 613.145 1158.33 614.931 1152.2 618.094C1142.25 623.241 1131.82 626.896 1120.16 627.968C1107.42 629.138 1107.27 629.808 1105.48 617.835C1103.94 607.539 1097.31 598.554 1098.85 587.206C1100.07 578.145 1103.74 573.646 1112.77 571.266C1120.22 569.301 1127.21 568.04 1130.82 558.636C1132.82 553.421 1143.39 548.189 1152.18 548.573C1157.3 548.797 1160.17 548.061 1162.73 544.014C1166.75 537.665 1173.66 538.373 1180.21 538.83C1184.47 539.126 1188.04 540.934 1186.99 545.42C1184.63 555.535 1191.63 558.912 1199.64 558.505C1208.83 558.036 1206.35 549.771 1207.22 545.382ZM712.706 115.832C707.47 117.032 700.341 111.84 697.017 119.299C693.602 126.959 703.101 128.957 705.41 134.197C706.696 137.114 709.462 138.758 712.016 140.644C716.622 144.043 721.504 144.565 724.48 139.695C729.065 132.188 734.041 132.058 740.737 136.896C742.472 138.148 744.897 137.877 746.732 136.469C748.103 135.417 748.854 133.486 747.487 132.537C733.071 122.545 745.967 124.24 752.16 122.676C754.669 122.04 756.953 120.466 759.18 119.095C760.435 118.325 762.183 117.13 762.24 116.063C762.324 114.461 760.175 114.235 758.672 114.142C751.125 113.68 744.04 110.258 735.49 111.398C727.762 109.892 720.52 114.039 712.706 115.832ZM233.539 142.409C231.011 139.783 227.113 139.16 225.559 142.697C219.499 156.486 212.119 146.037 207.518 142.765C195.249 134.046 189.967 133.576 179.552 142.941C175.038 147.001 174.754 149.546 181.512 150.802C190.518 152.474 198.985 154.879 207.132 159.378C217.001 164.828 236.864 159.797 244.767 151.334C246.122 149.998 246.273 148.665 244.762 147.332C239.996 147.699 236.615 145.605 233.539 142.409ZM1080.38 491.899C1079.8 492.286 1079.7 493.85 1079.96 494.714C1082.05 501.548 1084.27 508.404 1093.05 510.375C1100.64 512.079 1106.2 510.166 1111.03 503.802C1117.07 495.828 1114.33 486.364 1117.79 478.001C1119.06 474.913 1114.8 473.276 1109.19 473.241C1100.48 478.849 1090.38 485.307 1080.38 491.899ZM847.689 542.488C840.923 546.904 831.543 550.358 828.067 557.077C824.063 564.817 822.62 574.181 823.198 583.242C823.401 586.423 825.207 588.964 828.918 589.576C833.411 590.319 838.747 590.046 840.031 585.768C843.591 573.918 850.489 563.047 852.246 551.443C850.735 547.501 852.149 539.575 847.689 542.488ZM881.394 187.002C870.206 175.463 870.219 173.03 882.911 163.247C890.398 157.475 898.567 152.672 908.304 150.538C912.461 149.627 916.521 148.155 920.419 146.514C921.457 146.077 922.298 144.046 922.23 142.795C922.098 140.428 919.981 139.2 917.678 139.725C896.71 144.488 875.728 149.275 862.145 167.048C856.714 174.153 858.582 181.878 866.892 185.721C871.447 187.828 876.385 187.155 881.213 187.208L881.394 187.002ZM1322.94 673.691C1326.85 664.926 1333.98 659.433 1341.9 653.97C1351.51 647.34 1350.82 642.549 1340.9 635.251C1338.81 633.71 1336.71 631.182 1333.99 632.331C1330.72 633.72 1332.81 636.629 1333.24 638.942C1334.48 645.625 1333.52 650.194 1325.62 654.073C1318.91 657.369 1314.13 664.386 1309.09 670.198C1305.13 674.778 1307.27 679.623 1313.44 679.955C1317.68 680.007 1321.32 677.318 1322.94 673.691ZM1207.11 340.853C1204.93 339.688 1202.64 340.097 1201.5 342.003C1194.59 353.566 1183.06 359.215 1170.5 363.975C1165.37 365.921 1161.79 369.933 1162.06 375.712C1162.16 377.947 1163.5 379.917 1166.02 378.878C1177.49 374.143 1189.34 369.888 1200.03 363.895C1206.47 360.29 1208.64 352.698 1210.13 346.808C1210.31 343.474 1209.08 341.905 1207.11 340.853ZM1032.14 107.692C1024.36 102.975 1019.56 107.466 1016.66 113.052C1013.63 118.862 1015.84 123.989 1023.17 125.942C1028.9 127.466 1034.72 128.686 1040.49 130.042C1043.85 127.539 1045.78 124.117 1047.59 120.609C1044.02 114.672 1038.02 111.255 1032.14 107.692ZM1191.64 150.425C1188.43 155.645 1195.28 156.44 1197.7 159.202C1198.71 160.362 1199.86 161.441 1200.73 162.689C1203.16 166.192 1206.09 169.862 1210.95 168.386C1216.95 166.561 1209.53 162.418 1211.87 159.581C1213.16 158.02 1214.25 156.302 1215.62 154.808C1218.86 151.271 1216.72 149.335 1213.15 148.424C1210.09 147.641 1206.79 147.631 1204.66 147.397C1199.36 147.819 1193.99 146.596 1191.64 150.425ZM1130.6 456.319C1135.86 460.537 1140.64 457.183 1143.3 454.201C1146.17 450.974 1143 447.229 1138.79 446.453C1131.17 445.049 1130.71 441.59 1133.36 435.667C1134.48 433.154 1131.27 430.998 1128.71 430.352C1125.28 429.489 1124.05 432.363 1123.2 434.681C1122.51 436.544 1122.59 438.652 1122.33 440.651C1121.8 447.399 1125.41 452.152 1130.6 456.319ZM1117.8 504.992C1118.2 509.471 1118.89 515.883 1124.13 516.998C1126.95 517.6 1134.18 515.23 1133.71 509.325C1133.36 505.002 1132.27 500.219 1125.75 499.584C1121.87 499.76 1117.45 500.988 1117.8 504.992Z" fill="#1D1D1D" fill-opacity="0.6"/>
</g>
<defs>
<clipPath id="clip0_247_4585">
<rect width="1384" height="782" fill="white"/>
</clipPath>
</defs>
</svg>
