<svg width="27" height="27" viewBox="0 0 27 27" fill="none" xmlns="http://www.w3.org/2000/svg">
<path d="M24.2506 8.09672C24.1225 7.62044 23.8714 7.18617 23.5226 6.83741C23.1739 6.48864 22.7396 6.2376 22.2633 6.10941C20.9617 5.60654 8.35158 5.36016 4.69308 6.12347C4.21672 6.25171 3.78241 6.50283 3.43364 6.85171C3.08486 7.20058 2.83386 7.63496 2.70576 8.11135C2.11795 10.6893 2.07351 16.2625 2.72039 18.8984C2.84857 19.3747 3.09961 19.809 3.44838 20.1577C3.79715 20.5065 4.23141 20.7575 4.7077 20.8857C7.28564 21.4792 19.5414 21.5624 22.278 20.8857C22.7542 20.7575 23.1885 20.5065 23.5373 20.1577C23.886 19.809 24.1371 19.3747 24.2653 18.8984C24.8919 16.0898 24.9363 10.862 24.2506 8.09672V8.09672Z" stroke="#F9D119" stroke-linecap="round" stroke-linejoin="round"/>
<path d="M17.1938 13.4969L11.3174 10.127V16.8668L17.1938 13.4969Z" stroke="#F9D119" stroke-linecap="round" stroke-linejoin="round"/>
</svg>
